<svg id="Layer_1" data-name="Layer 1" xmlns="http://www.w3.org/2000/svg" viewBox="0 0 1923.08 1083.78"><defs><style>.cls-1{fill:#575757;stroke:#575757;}.cls-1,.cls-10,.cls-100,.cls-101,.cls-102,.cls-103,.cls-104,.cls-105,.cls-106,.cls-107,.cls-108,.cls-109,.cls-11,.cls-110,.cls-111,.cls-112,.cls-113,.cls-114,.cls-115,.cls-116,.cls-117,.cls-118,.cls-119,.cls-12,.cls-120,.cls-121,.cls-122,.cls-123,.cls-124,.cls-125,.cls-126,.cls-13,.cls-14,.cls-15,.cls-16,.cls-17,.cls-18,.cls-19,.cls-2,.cls-20,.cls-21,.cls-22,.cls-23,.cls-24,.cls-25,.cls-26,.cls-27,.cls-28,.cls-29,.cls-3,.cls-30,.cls-31,.cls-32,.cls-33,.cls-34,.cls-35,.cls-36,.cls-37,.cls-38,.cls-39,.cls-4,.cls-40,.cls-41,.cls-42,.cls-43,.cls-44,.cls-45,.cls-46,.cls-47,.cls-48,.cls-49,.cls-5,.cls-50,.cls-51,.cls-52,.cls-53,.cls-54,.cls-55,.cls-56,.cls-57,.cls-58,.cls-59,.cls-6,.cls-60,.cls-61,.cls-62,.cls-63,.cls-64,.cls-65,.cls-66,.cls-67,.cls-68,.cls-69,.cls-7,.cls-70,.cls-71,.cls-72,.cls-73,.cls-74,.cls-75,.cls-76,.cls-77,.cls-78,.cls-79,.cls-8,.cls-80,.cls-81,.cls-82,.cls-83,.cls-84,.cls-85,.cls-86,.cls-87,.cls-88,.cls-89,.cls-9,.cls-90,.cls-91,.cls-92,.cls-93,.cls-94,.cls-95,.cls-96,.cls-97,.cls-98,.cls-99{opacity:0.33;}.cls-2{fill:#ccc;stroke:#ccc;}.cls-3{fill:#444;stroke:#444;}.cls-4{fill:#4b4b4b;stroke:#4b4b4b;}.cls-5{fill:#8f8f8f;stroke:#8f8f8f;}.cls-6{fill:#545454;stroke:#545454;}.cls-7{fill:#a2a2a2;stroke:#a2a2a2;}.cls-8{fill:#707070;stroke:#707070;}.cls-9{fill:#848484;stroke:#848484;}.cls-10{fill:#dadada;stroke:#dadada;}.cls-11{fill:#5c5c5c;stroke:#5c5c5c;}.cls-12{fill:#4e4e4e;stroke:#4e4e4e;}.cls-13{fill:#696969;stroke:#696969;}.cls-14{fill:#7c7c7c;stroke:#7c7c7c;}.cls-15{fill:#5b5b5b;stroke:#5b5b5b;}.cls-16{fill:#737373;stroke:#737373;}.cls-17{fill:#c1c1c1;stroke:#c1c1c1;}.cls-18{fill:#d1d1d1;stroke:#d1d1d1;}.cls-19{fill:#616161;stroke:#616161;}.cls-20{fill:#6b6b6b;stroke:#6b6b6b;}.cls-21{fill:#6a6a6a;stroke:#6a6a6a;}.cls-22{fill:#b0b0b0;stroke:#b0b0b0;}.cls-23{fill:#585858;stroke:#585858;}.cls-24{fill:#b4b4b4;stroke:#b4b4b4;}.cls-25{fill:#4c4c4c;stroke:#4c4c4c;}.cls-26{fill:#4f4f4f;stroke:#4f4f4f;}.cls-27{fill:#727272;stroke:#727272;}.cls-28{fill:#646464;stroke:#646464;}.cls-29{fill:#b2b2b2;stroke:#b2b2b2;}.cls-30{fill:#949494;stroke:#949494;}.cls-31{fill:#ababab;stroke:#ababab;}.cls-32{fill:#656565;stroke:#656565;}.cls-33{fill:#525252;stroke:#525252;}.cls-34{fill:#464646;stroke:#464646;}.cls-35{fill:#dcdcdc;stroke:#dcdcdc;}.cls-36{fill:#989898;stroke:#989898;}.cls-37{fill:#414141;stroke:#414141;}.cls-38{fill:#919191;stroke:#919191;}.cls-39{fill:#6e6e6e;stroke:#6e6e6e;}.cls-40{fill:#bdbdbd;stroke:#bdbdbd;}.cls-41{fill:gray;stroke:gray;}.cls-42{fill:#cdcdcd;stroke:#cdcdcd;}.cls-43{fill:#9d9d9d;stroke:#9d9d9d;}.cls-44{fill:#b6b6b6;stroke:#b6b6b6;}.cls-45{fill:#cfcfcf;stroke:#cfcfcf;}.cls-46{fill:#484848;stroke:#484848;}.cls-47{fill:#5e5e5e;stroke:#5e5e5e;}.cls-48{fill:#3a3a3a;stroke:#3a3a3a;}.cls-49{fill:#424242;stroke:#424242;}.cls-50{fill:#bababa;stroke:#bababa;}.cls-51{fill:#c3c3c3;stroke:#c3c3c3;}.cls-52{fill:#818181;stroke:#818181;}.cls-53{fill:#757575;stroke:#757575;}.cls-54{fill:#a7a7a7;stroke:#a7a7a7;}.cls-55{fill:#c5c5c5;stroke:#c5c5c5;}.cls-56{fill:#b1b1b1;stroke:#b1b1b1;}.cls-57{fill:#b7b7b7;stroke:#b7b7b7;}.cls-58{fill:#b5b5b5;stroke:#b5b5b5;}.cls-59{fill:#434343;stroke:#434343;}.cls-60{fill:#3c3c3c;stroke:#3c3c3c;}.cls-61{fill:#494949;stroke:#494949;}.cls-62{fill:#858585;stroke:#858585;}.cls-63{fill:#c4c4c4;stroke:#c4c4c4;}.cls-64{fill:#8d8d8d;stroke:#8d8d8d;}.cls-65{fill:#9f9f9f;stroke:#9f9f9f;}.cls-66{fill:#595959;stroke:#595959;}.cls-67{fill:#e9e9e9;stroke:#e9e9e9;}.cls-68{fill:#ededed;stroke:#ededed;}.cls-69{fill:#bfbfbf;stroke:#bfbfbf;}.cls-70{fill:#cacaca;stroke:#cacaca;}.cls-71{fill:#797979;stroke:#797979;}.cls-72{fill:#bcbcbc;stroke:#bcbcbc;}.cls-73{fill:#bbb;stroke:#bbb;}.cls-74{fill:#9a9a9a;stroke:#9a9a9a;}.cls-75{fill:#c7c7c7;stroke:#c7c7c7;}.cls-76{fill:#474747;stroke:#474747;}.cls-77{fill:#d4d4d4;stroke:#d4d4d4;}.cls-78{fill:#4d4d4d;stroke:#4d4d4d;}.cls-79{fill:#f4f4f4;stroke:#f4f4f4;}.cls-80{fill:#d8d8d8;stroke:#d8d8d8;}.cls-81{fill:#8e8e8e;stroke:#8e8e8e;}.cls-82{fill:#868686;stroke:#868686;}.cls-83{fill:#dfdfdf;stroke:#dfdfdf;}.cls-84{fill:#fdfdfd;stroke:#fdfdfd;}.cls-85{fill:#fbfbfb;stroke:#fbfbfb;}.cls-86{fill:#f7f7f7;stroke:#f7f7f7;}.cls-87{fill:#7f7f7f;stroke:#7f7f7f;}.cls-88{fill:#5f5f5f;stroke:#5f5f5f;}.cls-89{fill:#979797;stroke:#979797;}.cls-90{fill:#f2f2f2;stroke:#f2f2f2;}.cls-91{fill:#f3f3f3;stroke:#f3f3f3;}.cls-92{fill:#e8e8e8;stroke:#e8e8e8;}.cls-93{fill:#676767;stroke:#676767;}.cls-94{fill:#fefefe;stroke:#fefefe;}.cls-95{fill:#e2e2e2;stroke:#e2e2e2;}.cls-96{fill:#f6f6f6;stroke:#f6f6f6;}.cls-97{fill:#f1f1f1;stroke:#f1f1f1;}.cls-98{fill:#636363;stroke:#636363;}.cls-99{fill:#fcfcfc;stroke:#fcfcfc;}.cls-100{fill:#ececec;stroke:#ececec;}.cls-101{fill:#f9f9f9;stroke:#f9f9f9;}.cls-102{fill:#d3d3d3;stroke:#d3d3d3;}.cls-103{fill:#fafafa;stroke:#fafafa;}.cls-104{fill:#f5f5f5;stroke:#f5f5f5;}.cls-105{fill:#eee;stroke:#eee;}.cls-106{fill:#747474;stroke:#747474;}.cls-107{fill:#b3b3b3;stroke:#b3b3b3;}.cls-108{fill:#efefef;stroke:#efefef;}.cls-109{fill:#a4a4a4;stroke:#a4a4a4;}.cls-110{fill:#f8f8f8;stroke:#f8f8f8;}.cls-111{fill:#adadad;stroke:#adadad;}.cls-112{fill:#d9d9d9;stroke:#d9d9d9;}.cls-113{fill:#d7d7d7;stroke:#d7d7d7;}.cls-114{fill:#e3e3e3;stroke:#e3e3e3;}.cls-115{fill:#6f6f6f;stroke:#6f6f6f;}.cls-116{fill:#8a8a8a;stroke:#8a8a8a;}.cls-117{fill:#cecece;stroke:#cecece;}.cls-118{fill:#e4e4e4;stroke:#e4e4e4;}.cls-119{fill:#d5d5d5;stroke:#d5d5d5;}.cls-120{fill:#828282;stroke:#828282;}.cls-121{fill:#cbcbcb;stroke:#cbcbcb;}.cls-122{fill:#d2d2d2;stroke:#d2d2d2;}.cls-123{fill:#7d7d7d;stroke:#7d7d7d;}.cls-124{fill:#606060;stroke:#606060;}.cls-125{fill:#e5e5e5;stroke:#e5e5e5;}.cls-126{fill:#f0f0f0;stroke:#f0f0f0;}</style></defs><polygon class="cls-1" points="1.68 697.92 1.68 796.92 21.68 766.92 1.68 697.92"/><polygon class="cls-2" points="1.68 100.92 1.68 1.92 1.68 1.92 1.68 100.92"/><polygon class="cls-3" points="1.68 995.92 1.68 1081.92 1.68 1081.92 1.68 995.92"/><polygon class="cls-4" points="1.68 697.92 21.68 766.92 71.68 716.92 1.68 697.92"/><polygon class="cls-5" points="1.68 398.92 1.68 498.92 71.68 451.92 1.68 398.92"/><polygon class="cls-6" points="1.68 1081.92 1.68 1081.92 1.68 896.92 1.68 1081.92"/><polygon class="cls-7" points="1.68 1.92 1.68 100.92 100.68 1.92 1.68 1.92"/><polygon class="cls-8" points="1.68 100.92 91.68 116.92 100.68 1.92 1.68 100.92"/><polygon class="cls-9" points="91.68 116.92 1.68 1.92 100.68 1.92 91.68 116.92"/><polygon class="cls-9" points="1.68 1.92 91.68 116.92 100.68 1.92 1.68 1.92"/><polygon class="cls-4" points="1.68 995.92 1.68 1081.92 100.68 1081.92 1.68 995.92"/><polygon class="cls-10" points="1.68 100.92 1.68 199.92 91.68 116.92 1.68 100.92"/><polygon class="cls-7" points="1.68 1.92 1.68 1.92 91.68 116.92 1.68 1.92"/><polygon class="cls-11" points="1.68 597.92 1.68 697.92 71.68 716.92 1.68 597.92"/><polygon class="cls-12" points="1.68 597.92 71.68 716.92 126.68 626.92 1.68 597.92"/><polygon class="cls-13" points="1.68 498.92 1.68 597.92 131.68 546.92 1.68 498.92"/><polygon class="cls-14" points="71.68 451.92 1.68 498.92 131.68 546.92 71.68 451.92"/><polygon class="cls-15" points="1.68 597.92 126.68 626.92 131.68 546.92 1.68 597.92"/><polygon class="cls-16" points="1.68 896.92 1.68 995.92 146.68 936.92 1.68 896.92"/><polygon class="cls-17" points="1.68 299.92 1.68 398.92 141.68 406.92 1.68 299.92"/><polygon class="cls-18" points="1.68 398.92 71.68 451.92 141.68 406.92 1.68 398.92"/><polygon class="cls-19" points="131.68 546.92 126.68 626.92 166.68 616.92 131.68 546.92"/><polygon class="cls-20" points="1.68 995.92 100.68 1081.92 146.68 936.92 1.68 995.92"/><polygon class="cls-21" points="1.68 796.92 1.68 896.92 146.68 936.92 1.68 796.92"/><polygon class="cls-22" points="100.68 1.92 91.68 116.92 186.68 111.92 100.68 1.92"/><polygon class="cls-23" points="21.68 766.92 1.68 796.92 146.68 936.92 21.68 766.92"/><polygon class="cls-24" points="71.68 451.92 131.68 546.92 141.68 406.92 71.68 451.92"/><polygon class="cls-25" points="71.68 716.92 21.68 766.92 211.68 826.92 71.68 716.92"/><polygon class="cls-26" points="21.68 766.92 146.68 936.92 211.68 826.92 21.68 766.92"/><polygon class="cls-27" points="146.68 936.92 100.68 1081.92 211.68 971.92 146.68 936.92"/><polygon class="cls-28" points="100.68 1081.92 199.68 1081.92 211.68 971.92 100.68 1081.92"/><polygon class="cls-29" points="141.68 406.92 131.68 546.92 206.68 536.92 141.68 406.92"/><polygon class="cls-30" points="131.68 546.92 166.68 616.92 206.68 536.92 131.68 546.92"/><polygon class="cls-31" points="100.68 1.92 186.68 111.92 206.68 11.92 100.68 1.92"/><polygon class="cls-29" points="199.68 1.92 100.68 1.92 206.68 11.92 199.68 1.92"/><polygon class="cls-32" points="146.68 936.92 211.68 971.92 246.68 876.92 146.68 936.92"/><polygon class="cls-33" points="211.68 826.92 146.68 936.92 246.68 876.92 211.68 826.92"/><polygon class="cls-34" points="126.68 626.92 71.68 716.92 166.68 616.92 126.68 626.92"/><polygon class="cls-35" points="1.68 199.92 1.68 299.92 91.68 116.92 1.68 199.92"/><polygon class="cls-36" points="206.68 536.92 166.68 616.92 271.68 571.92 206.68 536.92"/><polygon class="cls-37" points="166.68 616.92 71.68 716.92 211.68 826.92 166.68 616.92"/><polygon class="cls-10" points="91.68 116.92 1.68 299.92 141.68 406.92 91.68 116.92"/><polygon class="cls-38" points="91.68 116.92 141.68 406.92 186.68 111.92 91.68 116.92"/><polygon class="cls-39" points="211.68 971.92 199.68 1081.92 299.68 1081.92 211.68 971.92"/><polygon class="cls-40" points="199.68 1.92 206.68 11.92 299.68 1.92 199.68 1.92"/><polygon class="cls-37" points="166.68 616.92 211.68 826.92 296.68 656.92 166.68 616.92"/><polygon class="cls-41" points="271.68 571.92 166.68 616.92 296.68 656.92 271.68 571.92"/><polygon class="cls-42" points="186.68 111.92 141.68 406.92 276.68 341.92 186.68 111.92"/><polygon class="cls-43" points="206.68 536.92 271.68 571.92 331.68 496.92 206.68 536.92"/><polygon class="cls-8" points="276.68 341.92 206.68 536.92 331.68 496.92 276.68 341.92"/><polygon class="cls-44" points="206.68 11.92 186.68 111.92 299.68 1.92 206.68 11.92"/><polygon class="cls-45" points="141.68 406.92 206.68 536.92 276.68 341.92 141.68 406.92"/><polygon class="cls-46" points="211.68 826.92 246.68 876.92 351.68 811.92 211.68 826.92"/><polygon class="cls-47" points="351.68 776.92 211.68 826.92 351.68 811.92 351.68 776.92"/><polygon class="cls-48" points="341.68 696.92 211.68 826.92 351.68 776.92 341.68 696.92"/><polygon class="cls-49" points="296.68 656.92 211.68 826.92 341.68 696.92 296.68 656.92"/><polygon class="cls-50" points="299.68 1.92 186.68 111.92 441.68 86.92 299.68 1.92"/><polygon class="cls-51" points="398.68 1.92 299.68 1.92 441.68 86.92 398.68 1.92"/><polygon class="cls-52" points="299.68 1081.92 398.68 1081.92 451.68 936.92 299.68 1081.92"/><polygon class="cls-47" points="351.68 811.92 246.68 876.92 451.68 936.92 351.68 811.92"/><polygon class="cls-1" points="246.68 876.92 211.68 971.92 451.68 936.92 246.68 876.92"/><polygon class="cls-53" points="211.68 971.92 299.68 1081.92 451.68 936.92 211.68 971.92"/><polygon class="cls-54" points="186.68 111.92 276.68 341.92 441.68 86.92 186.68 111.92"/><polygon class="cls-8" points="271.68 571.92 296.68 656.92 331.68 496.92 271.68 571.92"/><polygon class="cls-55" points="398.68 1.92 441.68 86.92 498.68 1.92 398.68 1.92"/><polygon class="cls-56" points="441.68 86.92 276.68 341.92 491.68 131.92 441.68 86.92"/><polygon class="cls-57" points="461.68 96.92 441.68 86.92 491.68 131.92 461.68 96.92"/><polygon class="cls-58" points="331.68 496.92 296.68 656.92 341.68 696.92 331.68 496.92"/><polygon class="cls-59" points="341.68 696.92 351.68 776.92 521.68 781.92 341.68 696.92"/><polygon class="cls-60" points="351.68 776.92 351.68 811.92 521.68 781.92 351.68 776.92"/><polygon class="cls-61" points="351.68 811.92 451.68 936.92 521.68 781.92 351.68 811.92"/><polygon class="cls-62" points="451.68 936.92 398.68 1081.92 498.68 1081.92 451.68 936.92"/><polygon class="cls-63" points="441.68 86.92 461.68 96.92 498.68 1.92 441.68 86.92"/><polygon class="cls-53" points="451.68 936.92 498.68 1081.92 571.68 976.92 451.68 936.92"/><polygon class="cls-30" points="331.68 496.92 341.68 696.92 591.68 546.92 331.68 496.92"/><polygon class="cls-51" points="461.68 96.92 491.68 131.92 498.68 1.92 461.68 96.92"/><polygon class="cls-64" points="571.68 976.92 498.68 1081.92 597.68 1081.92 571.68 976.92"/><polygon class="cls-59" points="606.68 831.92 571.68 976.92 616.68 846.92 606.68 831.92"/><polygon class="cls-65" points="591.68 546.92 521.68 781.92 611.68 716.92 591.68 546.92"/><polygon class="cls-59" points="521.68 781.92 451.68 936.92 606.68 831.92 521.68 781.92"/><polygon class="cls-66" points="451.68 936.92 571.68 976.92 606.68 831.92 451.68 936.92"/><polygon class="cls-9" points="341.68 696.92 521.68 781.92 591.68 546.92 341.68 696.92"/><polygon class="cls-67" points="591.68 546.92 611.68 716.92 631.68 621.92 591.68 546.92"/><polygon class="cls-17" points="498.68 1.92 491.68 131.92 597.68 1.92 498.68 1.92"/><polygon class="cls-51" points="611.68 11.92 491.68 131.92 636.68 136.92 611.68 11.92"/><polygon class="cls-68" points="521.68 781.92 606.68 831.92 611.68 716.92 521.68 781.92"/><polygon class="cls-69" points="597.68 1.92 491.68 131.92 611.68 11.92 597.68 1.92"/><polygon class="cls-70" points="636.68 136.92 491.68 131.92 676.68 176.92 636.68 136.92"/><polygon class="cls-50" points="611.68 716.92 606.68 831.92 706.68 816.92 611.68 716.92"/><polygon class="cls-71" points="606.68 831.92 616.68 846.92 706.68 816.92 606.68 831.92"/><polygon class="cls-38" points="571.68 976.92 597.68 1081.92 697.68 1081.92 571.68 976.92"/><polygon class="cls-72" points="611.68 11.92 636.68 136.92 697.68 1.92 611.68 11.92"/><polygon class="cls-73" points="597.68 1.92 611.68 11.92 697.68 1.92 597.68 1.92"/><polygon class="cls-42" points="491.68 131.92 591.68 546.92 676.68 176.92 491.68 131.92"/><polygon class="cls-29" points="276.68 341.92 331.68 496.92 591.68 546.92 276.68 341.92"/><polygon class="cls-74" points="491.68 131.92 276.68 341.92 591.68 546.92 491.68 131.92"/><polygon class="cls-75" points="636.68 136.92 676.68 176.92 697.68 1.92 636.68 136.92"/><polygon class="cls-76" points="616.68 846.92 571.68 976.92 706.68 816.92 616.68 846.92"/><polygon class="cls-26" points="571.68 976.92 697.68 1081.92 706.68 816.92 571.68 976.92"/><polygon class="cls-77" points="631.68 621.92 611.68 716.92 836.68 736.92 631.68 621.92"/><polygon class="cls-54" points="611.68 716.92 706.68 816.92 836.68 736.92 611.68 716.92"/><polygon class="cls-78" points="706.68 816.92 697.68 1081.92 821.68 881.92 706.68 816.92"/><polygon class="cls-52" points="697.68 1081.92 796.68 1081.92 821.68 881.92 697.68 1081.92"/><polygon class="cls-75" points="697.68 1.92 676.68 176.92 796.68 1.92 697.68 1.92"/><polygon class="cls-79" points="676.68 176.92 591.68 546.92 871.68 341.92 676.68 176.92"/><polygon class="cls-80" points="796.68 1.92 676.68 176.92 851.68 171.92 796.68 1.92"/><polygon class="cls-81" points="706.68 816.92 821.68 881.92 836.68 736.92 706.68 816.92"/><polygon class="cls-24" points="836.68 736.92 821.68 881.92 891.68 786.92 836.68 736.92"/><polygon class="cls-68" points="851.68 171.92 676.68 176.92 871.68 341.92 851.68 171.92"/><polygon class="cls-82" points="821.68 881.92 796.68 1081.92 896.68 1081.92 821.68 881.92"/><polygon class="cls-83" points="796.68 1.92 851.68 171.92 896.68 1.92 796.68 1.92"/><polygon class="cls-84" points="591.68 546.92 631.68 621.92 871.68 341.92 591.68 546.92"/><polygon class="cls-85" points="631.68 621.92 836.68 736.92 971.68 501.92 631.68 621.92"/><polygon class="cls-86" points="871.68 341.92 631.68 621.92 971.68 501.92 871.68 341.92"/><polygon class="cls-84" points="971.68 501.92 836.68 736.92 1016.68 586.92 971.68 501.92"/><polygon class="cls-79" points="851.68 171.92 871.68 341.92 996.68 311.92 851.68 171.92"/><polygon class="cls-87" points="891.68 786.92 821.68 881.92 1051.68 891.92 891.68 786.92"/><polygon class="cls-88" points="821.68 881.92 896.68 1081.92 1051.68 891.92 821.68 881.92"/><polygon class="cls-89" points="896.68 1081.92 995.68 1081.92 1051.68 891.92 896.68 1081.92"/><polygon class="cls-90" points="836.68 736.92 891.68 786.92 1016.68 586.92 836.68 736.92"/><polygon class="cls-91" points="871.68 341.92 971.68 501.92 996.68 311.92 871.68 341.92"/><polygon class="cls-92" points="896.68 1.92 851.68 171.92 995.68 1.92 896.68 1.92"/><polygon class="cls-93" points="1051.68 891.92 995.68 1081.92 1081.68 1026.92 1051.68 891.92"/><polygon class="cls-94" points="971.68 501.92 1016.68 586.92 1076.68 501.92 971.68 501.92"/><polygon class="cls-50" points="1081.68 1026.92 995.68 1081.92 1094.68 1081.92 1081.68 1026.92"/><polygon class="cls-94" points="996.68 311.92 971.68 501.92 1076.68 501.92 996.68 311.92"/><polygon class="cls-84" points="996.68 311.92 1076.68 501.92 1141.68 331.92 996.68 311.92"/><polygon class="cls-75" points="1051.68 891.92 1081.68 1026.92 1136.68 911.92 1051.68 891.92"/><polygon class="cls-95" points="1016.68 586.92 891.68 786.92 1051.68 891.92 1016.68 586.92"/><polygon class="cls-79" points="995.68 1.92 851.68 171.92 996.68 311.92 995.68 1.92"/><polygon class="cls-58" points="1081.68 1026.92 1094.68 1081.92 1194.68 1081.92 1081.68 1026.92"/><polygon class="cls-94" points="1141.68 331.92 1076.68 501.92 1191.68 381.92 1141.68 331.92"/><polygon class="cls-96" points="995.68 1.92 996.68 311.92 1094.68 1.92 995.68 1.92"/><polygon class="cls-97" points="1194.68 1.92 1094.68 1.92 1221.68 151.92 1194.68 1.92"/><polygon class="cls-85" points="1094.68 1.92 996.68 311.92 1221.68 151.92 1094.68 1.92"/><polygon class="cls-84" points="996.68 311.92 1141.68 331.92 1221.68 151.92 996.68 311.92"/><polygon class="cls-98" points="1136.68 911.92 1081.68 1026.92 1194.68 1081.92 1136.68 911.92"/><polygon class="cls-99" points="1221.68 151.92 1141.68 331.92 1266.68 206.92 1221.68 151.92"/><polygon class="cls-100" points="1016.68 586.92 1051.68 891.92 1281.68 781.92 1016.68 586.92"/><polygon class="cls-64" points="1051.68 891.92 1136.68 911.92 1281.68 781.92 1051.68 891.92"/><polygon class="cls-84" points="1266.68 206.92 1141.68 331.92 1291.68 271.92 1266.68 206.92"/><polygon class="cls-94" points="1141.68 331.92 1191.68 381.92 1291.68 271.92 1141.68 331.92"/><polygon class="cls-101" points="1221.68 151.92 1266.68 206.92 1326.68 171.92 1221.68 151.92"/><polygon class="cls-97" points="1194.68 1.92 1221.68 151.92 1293.68 1.92 1194.68 1.92"/><polygon class="cls-94" points="1191.68 381.92 1076.68 501.92 1336.68 476.92 1191.68 381.92"/><polygon class="cls-2" points="1281.68 781.92 1136.68 911.92 1321.68 811.92 1281.68 781.92"/><polygon class="cls-84" points="1076.68 501.92 1016.68 586.92 1281.68 781.92 1076.68 501.92"/><polygon class="cls-102" points="1321.68 811.92 1136.68 911.92 1361.68 876.92 1321.68 811.92"/><polygon class="cls-103" points="1266.68 206.92 1291.68 271.92 1326.68 171.92 1266.68 206.92"/><polygon class="cls-62" points="1136.68 911.92 1194.68 1081.92 1293.68 1081.92 1136.68 911.92"/><polygon class="cls-84" points="1076.68 501.92 1281.68 781.92 1371.68 661.92 1076.68 501.92"/><polygon class="cls-94" points="1336.68 476.92 1076.68 501.92 1371.68 661.92 1336.68 476.92"/><polygon class="cls-36" points="1136.68 911.92 1293.68 1081.92 1361.68 876.92 1136.68 911.92"/><polygon class="cls-104" points="1293.68 1.92 1221.68 151.92 1326.68 171.92 1293.68 1.92"/><polygon class="cls-103" points="1326.68 171.92 1291.68 271.92 1396.68 241.92 1326.68 171.92"/><polygon class="cls-56" points="1293.68 1081.92 1393.68 1081.92 1396.68 1051.92 1293.68 1081.92"/><polygon class="cls-94" points="1336.68 476.92 1371.68 661.92 1401.68 626.92 1336.68 476.92"/><polygon class="cls-91" points="1281.68 781.92 1321.68 811.92 1371.68 661.92 1281.68 781.92"/><polygon class="cls-94" points="1291.68 271.92 1191.68 381.92 1336.68 476.92 1291.68 271.92"/><polygon class="cls-95" points="1321.68 811.92 1361.68 876.92 1426.68 806.92 1321.68 811.92"/><polygon class="cls-105" points="1371.68 661.92 1321.68 811.92 1426.68 806.92 1371.68 661.92"/><polygon class="cls-106" points="1361.68 876.92 1293.68 1081.92 1396.68 1051.92 1361.68 876.92"/><polygon class="cls-91" points="1293.68 1.92 1326.68 171.92 1393.68 1.92 1293.68 1.92"/><polygon class="cls-67" points="1426.68 806.92 1361.68 876.92 1481.68 836.92 1426.68 806.92"/><polygon class="cls-107" points="1396.68 1051.92 1393.68 1081.92 1492.68 1081.92 1396.68 1051.92"/><polygon class="cls-94" points="1336.68 476.92 1401.68 626.92 1491.68 501.92 1336.68 476.92"/><polygon class="cls-99" points="1291.68 271.92 1336.68 476.92 1396.68 241.92 1291.68 271.92"/><polygon class="cls-42" points="1361.68 876.92 1396.68 1051.92 1546.68 906.92 1361.68 876.92"/><polygon class="cls-35" points="1481.68 836.92 1361.68 876.92 1546.68 906.92 1481.68 836.92"/><polygon class="cls-108" points="1396.68 241.92 1336.68 476.92 1536.68 306.92 1396.68 241.92"/><polygon class="cls-84" points="1491.68 501.92 1401.68 626.92 1556.68 546.92 1491.68 501.92"/><polygon class="cls-109" points="1396.68 1051.92 1492.68 1081.92 1546.68 906.92 1396.68 1051.92"/><polygon class="cls-85" points="1336.68 476.92 1491.68 501.92 1536.68 306.92 1336.68 476.92"/><polygon class="cls-108" points="1393.68 1.92 1326.68 171.92 1492.68 1.92 1393.68 1.92"/><polygon class="cls-110" points="1326.68 171.92 1396.68 241.92 1492.68 1.92 1326.68 171.92"/><polygon class="cls-108" points="1401.68 626.92 1371.68 661.92 1426.68 806.92 1401.68 626.92"/><polygon class="cls-104" points="1491.68 501.92 1556.68 546.92 1606.68 496.92 1491.68 501.92"/><polygon class="cls-101" points="1536.68 306.92 1491.68 501.92 1631.68 416.92 1536.68 306.92"/><polygon class="cls-101" points="1491.68 501.92 1621.68 476.92 1631.68 416.92 1491.68 501.92"/><polygon class="cls-110" points="1491.68 501.92 1606.68 496.92 1621.68 476.92 1491.68 501.92"/><polygon class="cls-111" points="1546.68 906.92 1492.68 1081.92 1592.68 1081.92 1546.68 906.92"/><polygon class="cls-92" points="1401.68 626.92 1426.68 806.92 1481.68 836.92 1401.68 626.92"/><polygon class="cls-110" points="1492.68 1.92 1396.68 241.92 1536.68 306.92 1492.68 1.92"/><polygon class="cls-112" points="1481.68 836.92 1546.68 906.92 1681.68 766.92 1481.68 836.92"/><polygon class="cls-104" points="1401.68 626.92 1481.68 836.92 1556.68 546.92 1401.68 626.92"/><polygon class="cls-74" points="1546.68 906.92 1592.68 1081.92 1651.68 1066.92 1546.68 906.92"/><polygon class="cls-92" points="1546.68 906.92 1676.68 921.92 1696.68 791.92 1546.68 906.92"/><polygon class="cls-80" points="1681.68 766.92 1546.68 906.92 1696.68 791.92 1681.68 766.92"/><polygon class="cls-105" points="1592.68 1.92 1536.68 306.92 1691.68 76.92 1592.68 1.92"/><polygon class="cls-113" points="1691.68 1.92 1592.68 1.92 1691.68 76.92 1691.68 1.92"/><polygon class="cls-114" points="1556.68 546.92 1481.68 836.92 1681.68 766.92 1556.68 546.92"/><polygon class="cls-115" points="1546.68 906.92 1651.68 1066.92 1676.68 921.92 1546.68 906.92"/><polygon class="cls-100" points="1492.68 1.92 1536.68 306.92 1592.68 1.92 1492.68 1.92"/><polygon class="cls-101" points="1536.68 306.92 1631.68 416.92 1726.68 211.92 1536.68 306.92"/><polygon class="cls-90" points="1691.68 76.92 1536.68 306.92 1726.68 211.92 1691.68 76.92"/><polygon class="cls-77" points="1691.68 1.92 1691.68 76.92 1721.68 16.92 1691.68 1.92"/><polygon class="cls-116" points="1676.68 921.92 1651.68 1066.92 1691.68 1081.92 1676.68 921.92"/><polygon class="cls-30" points="1651.68 1066.92 1592.68 1081.92 1691.68 1081.92 1651.68 1066.92"/><polygon class="cls-75" points="1696.68 791.92 1676.68 921.92 1796.68 911.92 1696.68 791.92"/><polygon class="cls-86" points="1726.68 211.92 1631.68 416.92 1796.68 366.92 1726.68 211.92"/><polygon class="cls-117" points="1691.68 1.92 1721.68 16.92 1791.68 1.92 1691.68 1.92"/><polygon class="cls-105" points="1606.68 496.92 1556.68 546.92 1681.68 766.92 1606.68 496.92"/><polygon class="cls-118" points="1691.68 76.92 1726.68 211.92 1836.68 136.92 1691.68 76.92"/><polygon class="cls-119" points="1791.68 1.92 1691.68 76.92 1836.68 136.92 1791.68 1.92"/><polygon class="cls-20" points="1676.68 921.92 1791.68 1081.92 1796.68 911.92 1676.68 921.92"/><polygon class="cls-103" points="1631.68 416.92 1621.68 476.92 1796.68 366.92 1631.68 416.92"/><polygon class="cls-18" points="1721.68 16.92 1691.68 76.92 1791.68 1.92 1721.68 16.92"/><polygon class="cls-120" points="1676.68 921.92 1691.68 1081.92 1791.68 1081.92 1676.68 921.92"/><polygon class="cls-103" points="1796.68 366.92 1621.68 476.92 1866.68 441.92 1796.68 366.92"/><polygon class="cls-103" points="1866.68 441.92 1621.68 476.92 1876.68 516.92 1866.68 441.92"/><polygon class="cls-103" points="1621.68 476.92 1606.68 496.92 1876.68 516.92 1621.68 476.92"/><polygon class="cls-117" points="1791.68 1.92 1836.68 136.92 1890.68 1.92 1791.68 1.92"/><polygon class="cls-105" points="1606.68 496.92 1681.68 766.92 1876.68 516.92 1606.68 496.92"/><polygon class="cls-13" points="1796.68 911.92 1921.68 896.92 1921.68 796.92 1796.68 911.92"/><polygon class="cls-51" points="1696.68 791.92 1796.68 911.92 1921.68 796.92 1696.68 791.92"/><polygon class="cls-55" points="1921.68 1.92 1890.68 1.92 1921.68 100.92 1921.68 1.92"/><polygon class="cls-121" points="1890.68 1.92 1836.68 136.92 1921.68 100.92 1890.68 1.92"/><polygon class="cls-83" points="1836.68 136.92 1726.68 211.92 1921.68 199.92 1836.68 136.92"/><polygon class="cls-122" points="1921.68 100.92 1836.68 136.92 1921.68 199.92 1921.68 100.92"/><polygon class="cls-80" points="1696.68 791.92 1921.68 796.92 1921.68 697.92 1696.68 791.92"/><polygon class="cls-114" points="1681.68 766.92 1696.68 791.92 1921.68 697.92 1681.68 766.92"/><polygon class="cls-104" points="1796.68 366.92 1866.68 441.92 1921.68 398.92 1796.68 366.92"/><polygon class="cls-96" points="1921.68 398.92 1866.68 441.92 1921.68 498.92 1921.68 398.92"/><polygon class="cls-110" points="1866.68 441.92 1876.68 516.92 1921.68 498.92 1866.68 441.92"/><polygon class="cls-113" points="1681.68 766.92 1921.68 697.92 1921.68 597.92 1681.68 766.92"/><polygon class="cls-95" points="1876.68 516.92 1681.68 766.92 1921.68 597.92 1876.68 516.92"/><polygon class="cls-86" points="1921.68 498.92 1876.68 516.92 1921.68 597.92 1921.68 498.92"/><polygon class="cls-123" points="1791.68 1081.92 1890.68 1081.92 1921.68 995.92 1791.68 1081.92"/><polygon class="cls-124" points="1796.68 911.92 1791.68 1081.92 1921.68 995.92 1796.68 911.92"/><polygon class="cls-39" points="1921.68 896.92 1796.68 911.92 1921.68 995.92 1921.68 896.92"/><polygon class="cls-123" points="1921.68 995.92 1890.68 1081.92 1921.68 1081.92 1921.68 995.92"/><polygon class="cls-125" points="1921.68 199.92 1726.68 211.92 1921.68 299.92 1921.68 199.92"/><polygon class="cls-68" points="1726.68 211.92 1796.68 366.92 1921.68 299.92 1726.68 211.92"/><polygon class="cls-126" points="1796.68 366.92 1921.68 398.92 1921.68 299.92 1796.68 366.92"/></svg>